<svg width="16" height="16" viewBox="0 0 16 16" fill="none" xmlns="http://www.w3.org/2000/svg">
<path d="M12 4.0026C11.5933 4.0026 11.22 3.76927 11.0333 3.40927L10.5533 2.4426C10.2467 1.83594 9.44668 1.33594 8.76668 1.33594H7.24001C6.55334 1.33594 5.75334 1.83594 5.44668 2.4426L4.96668 3.40927C4.78001 3.76927 4.40668 4.0026 4.00001 4.0026C2.55334 4.0026 1.40668 5.2226 1.50001 6.6626L1.84668 12.1693C1.92668 13.5426 2.66668 14.6693 4.50668 14.6693H11.4933C13.3333 14.6693 14.0667 13.5426 14.1533 12.1693L14.5 6.6626C14.5933 5.2226 13.4467 4.0026 12 4.0026ZM7.00001 4.83594H9.00001C9.27334 4.83594 9.50001 5.0626 9.50001 5.33594C9.50001 5.60927 9.27334 5.83594 9.00001 5.83594H7.00001C6.72668 5.83594 6.50001 5.60927 6.50001 5.33594C6.50001 5.0626 6.72668 4.83594 7.00001 4.83594ZM8.00001 12.0826C6.76001 12.0826 5.74668 11.0759 5.74668 9.82927C5.74668 8.5826 6.75334 7.57594 8.00001 7.57594C9.24668 7.57594 10.2533 8.5826 10.2533 9.82927C10.2533 11.0759 9.24001 12.0826 8.00001 12.0826Z" fill="white"/>
</svg>
