<svg width="20" height="20" viewBox="0 0 20 20" fill="none" xmlns="http://www.w3.org/2000/svg">
<path d="M17.5 18.3359H2.5C2.15833 18.3359 1.875 18.0526 1.875 17.7109C1.875 17.3693 2.15833 17.0859 2.5 17.0859H17.5C17.8417 17.0859 18.125 17.3693 18.125 17.7109C18.125 18.0526 17.8417 18.3359 17.5 18.3359Z" fill="#008A29"/>
<path d="M15.85 2.90005C14.2333 1.28338 12.65 1.24172 10.9916 2.90005L9.98331 3.90838C9.89998 3.99172 9.86665 4.12505 9.89998 4.24172C10.5333 6.45005 12.3 8.21672 14.5083 8.85005C14.5416 8.85838 14.575 8.86672 14.6083 8.86672C14.7 8.86672 14.7833 8.83338 14.85 8.76672L15.85 7.75838C16.675 6.94172 17.075 6.15005 17.075 5.35005C17.0833 4.52505 16.6833 3.72505 15.85 2.90005Z" fill="#008A29"/>
<path d="M13.0083 9.60573C12.7666 9.48906 12.5333 9.3724 12.3083 9.23906C12.125 9.13073 11.95 9.01406 11.775 8.88906C11.6333 8.7974 11.4666 8.66406 11.3083 8.53073C11.2916 8.5224 11.2333 8.4724 11.1666 8.40573C10.8916 8.1724 10.5833 7.8724 10.3083 7.53906C10.2833 7.5224 10.2416 7.46406 10.1833 7.38906C10.1 7.28906 9.95831 7.1224 9.83331 6.93073C9.73331 6.80573 9.61665 6.6224 9.50831 6.43906C9.37498 6.21406 9.25831 5.98906 9.14165 5.75573V5.75573C8.98868 5.42795 8.55847 5.33057 8.3027 5.58635L3.61665 10.2724C3.50831 10.3807 3.40831 10.5891 3.38331 10.7307L2.93331 13.9224C2.84998 14.4891 3.00831 15.0224 3.35831 15.3807C3.65831 15.6724 4.07498 15.8307 4.52498 15.8307C4.62498 15.8307 4.72498 15.8224 4.82498 15.8057L8.02498 15.3557C8.17498 15.3307 8.38331 15.2307 8.48331 15.1224L13.1771 10.4286C13.4278 10.178 13.3336 9.74667 13.0083 9.60573V9.60573Z" fill="#008A29"/>
</svg>
