<svg width="24" height="24" viewBox="0 0 24 24" fill="none" xmlns="http://www.w3.org/2000/svg">
<path d="M8.90998 20.6734C8.71998 20.6734 8.52998 20.6034 8.37998 20.4534C8.08998 20.1634 8.08998 19.6834 8.37998 19.3934L14.9 12.8734C15.38 12.3934 15.38 11.6134 14.9 11.1334L8.37998 4.61344C8.08998 4.32344 8.08998 3.84344 8.37998 3.55344C8.66998 3.26344 9.14998 3.26344 9.43998 3.55344L15.96 10.0734C16.47 10.5834 16.76 11.2734 16.76 12.0034C16.76 12.7334 16.48 13.4234 15.96 13.9334L9.43998 20.4534C9.28998 20.5934 9.09998 20.6734 8.90998 20.6734Z" fill="#008A29"/>
</svg>
