<svg width="20" height="20" viewBox="0 0 20 20" fill="none" xmlns="http://www.w3.org/2000/svg">
<path d="M14.5417 18.9557C13.6 18.9557 12.6083 18.7307 11.5833 18.2974C10.5833 17.8724 9.575 17.2891 8.59167 16.5807C7.61667 15.8641 6.675 15.0641 5.78333 14.1891C4.9 13.2974 4.1 12.3557 3.39167 11.3891C2.675 10.3891 2.1 9.38906 1.69167 8.4224C1.25833 7.38906 1.04167 6.38906 1.04167 5.4474C1.04167 4.7974 1.15833 4.18073 1.38333 3.60573C1.61667 3.01406 1.99167 2.46406 2.5 1.98906C3.14167 1.35573 3.875 1.03906 4.65833 1.03906C4.98334 1.03906 5.31667 1.11406 5.6 1.2474C5.925 1.3974 6.2 1.6224 6.4 1.9224L8.33333 4.6474C8.50834 4.88906 8.64167 5.1224 8.73333 5.35573C8.84167 5.60573 8.9 5.85573 8.9 6.0974C8.9 6.41406 8.80833 6.7224 8.63333 7.01406C8.50833 7.23906 8.31667 7.48073 8.075 7.7224L7.50834 8.31406C7.51667 8.33906 7.525 8.35573 7.53333 8.3724C7.63334 8.5474 7.83333 8.8474 8.21667 9.2974C8.625 9.76406 9.00834 10.1891 9.39167 10.5807C9.88334 11.0641 10.2917 11.4474 10.675 11.7641C11.15 12.1641 11.4583 12.3641 11.6417 12.4557L11.625 12.4974L12.2333 11.8974C12.4917 11.6391 12.7417 11.4474 12.9833 11.3224C13.4417 11.0391 14.025 10.9891 14.6083 11.2307C14.825 11.3224 15.0583 11.4474 15.3083 11.6224L18.075 13.5891C18.3833 13.7974 18.6083 14.0641 18.7417 14.3807C18.8667 14.6974 18.925 14.9891 18.925 15.2807C18.925 15.6807 18.8333 16.0807 18.6583 16.4557C18.4833 16.8307 18.2667 17.1557 17.9917 17.4557C17.5167 17.9807 17 18.3557 16.4 18.5974C15.825 18.8307 15.2 18.9557 14.5417 18.9557ZM4.65833 2.28906C4.2 2.28906 3.775 2.48906 3.36667 2.88906C2.98333 3.2474 2.71667 3.63906 2.55 4.06406C2.375 4.4974 2.29167 4.95573 2.29167 5.4474C2.29167 6.2224 2.475 7.06406 2.84167 7.93073C3.21667 8.81406 3.74167 9.73073 4.40833 10.6474C5.075 11.5641 5.83333 12.4557 6.66667 13.2974C7.5 14.1224 8.4 14.8891 9.325 15.5641C10.225 16.2224 11.15 16.7557 12.0667 17.1391C13.4917 17.7474 14.825 17.8891 15.925 17.4307C16.35 17.2557 16.725 16.9891 17.0667 16.6057C17.2583 16.3974 17.4083 16.1724 17.5333 15.9057C17.6333 15.6974 17.6833 15.4807 17.6833 15.2641C17.6833 15.1307 17.6583 14.9974 17.5917 14.8474C17.5667 14.7974 17.5167 14.7057 17.3583 14.5974L14.5917 12.6307C14.425 12.5141 14.275 12.4307 14.1333 12.3724C13.95 12.2974 13.875 12.2224 13.5917 12.3974C13.425 12.4807 13.275 12.6057 13.1083 12.7724L12.475 13.3974C12.15 13.7141 11.65 13.7891 11.2667 13.6474L11.0417 13.5474C10.7 13.3641 10.3 13.0807 9.85833 12.7057C9.45833 12.3641 9.025 11.9641 8.5 11.4474C8.09167 11.0307 7.68333 10.5891 7.25834 10.0974C6.86667 9.63906 6.58333 9.2474 6.40833 8.9224L6.30833 8.6724C6.25834 8.48073 6.24167 8.3724 6.24167 8.25573C6.24167 7.95573 6.35 7.68906 6.55833 7.48073L7.18333 6.83073C7.35 6.66406 7.475 6.50573 7.55833 6.36406C7.625 6.25573 7.65 6.16406 7.65 6.08073C7.65 6.01406 7.625 5.91406 7.58334 5.81406C7.525 5.68073 7.43333 5.53073 7.31667 5.3724L5.38333 2.63906C5.3 2.5224 5.2 2.43906 5.075 2.38073C4.94167 2.3224 4.8 2.28906 4.65833 2.28906ZM11.625 12.5057L11.4917 13.0724L11.7167 12.4891C11.675 12.4807 11.6417 12.4891 11.625 12.5057Z" fill="#9CA3AF"/>
<path d="M15.4167 8.1276C15.075 8.1276 14.7917 7.84427 14.7917 7.5026C14.7917 7.2026 14.4917 6.5776 13.9917 6.04427C13.5 5.51927 12.9583 5.21094 12.5 5.21094C12.1583 5.21094 11.875 4.9276 11.875 4.58594C11.875 4.24427 12.1583 3.96094 12.5 3.96094C13.3083 3.96094 14.1583 4.39427 14.9 5.18594C15.5917 5.9276 16.0417 6.83594 16.0417 7.5026C16.0417 7.84427 15.7583 8.1276 15.4167 8.1276Z" fill="#9CA3AF"/>
<path d="M18.3333 8.1224C17.9917 8.1224 17.7083 7.83906 17.7083 7.4974C17.7083 4.6224 15.375 2.28906 12.5 2.28906C12.1583 2.28906 11.875 2.00573 11.875 1.66406C11.875 1.3224 12.1583 1.03906 12.5 1.03906C16.0583 1.03906 18.9583 3.93906 18.9583 7.4974C18.9583 7.83906 18.675 8.1224 18.3333 8.1224Z" fill="#9CA3AF"/>
</svg>
