<svg width="20" height="20" viewBox="0 0 20 20" fill="none" xmlns="http://www.w3.org/2000/svg">
<path d="M10.625 13.2656H11.1667C11.7083 13.2656 12.1583 12.7823 12.1583 12.199C12.1583 11.474 11.9 11.3323 11.475 11.1823L10.6333 10.8906V13.2656H10.625Z" fill="#007DE9"/>
<path d="M9.975 1.57814C5.375 1.59481 1.65 5.33647 1.66667 9.93647C1.68333 14.5365 5.425 18.2615 10.025 18.2448C14.625 18.2281 18.35 14.4865 18.3333 9.88647C18.3167 5.28647 14.575 1.56981 9.975 1.57814ZM11.8833 9.99481C12.5333 10.2198 13.4083 10.7031 13.4083 12.1948C13.4083 13.4781 12.4 14.5115 11.1667 14.5115H10.625V14.9948C10.625 15.3365 10.3417 15.6198 10 15.6198C9.65833 15.6198 9.375 15.3365 9.375 14.9948V14.5115H9.075C7.70833 14.5115 6.6 13.3615 6.6 11.9448C6.6 11.6031 6.88333 11.3198 7.225 11.3198C7.56667 11.3198 7.85 11.6031 7.85 11.9448C7.85 12.6698 8.4 13.2615 9.075 13.2615H9.375V10.4448L8.11667 9.99481C7.46667 9.76981 6.59167 9.28647 6.59167 7.79481C6.59167 6.51147 7.6 5.47814 8.83333 5.47814H9.375V4.99481C9.375 4.65314 9.65833 4.36981 10 4.36981C10.3417 4.36981 10.625 4.65314 10.625 4.99481V5.47814H10.925C12.2917 5.47814 13.4 6.62814 13.4 8.04481C13.4 8.38647 13.1167 8.66981 12.775 8.66981C12.4333 8.66981 12.15 8.38647 12.15 8.04481C12.15 7.31981 11.6 6.72814 10.925 6.72814H10.625V9.54481L11.8833 9.99481Z" fill="#007DE9"/>
<path d="M7.85001 7.80937C7.85001 8.53437 8.10834 8.67604 8.53334 8.82604L9.37501 9.11771V6.73438H8.83334C8.29167 6.73438 7.85001 7.21771 7.85001 7.80937Z" fill="#007DE9"/>
</svg>
