<svg width="25" height="24" viewBox="0 0 25 24" fill="none" xmlns="http://www.w3.org/2000/svg">
<path d="M12.8999 16C14.5568 16 15.8999 14.6568 15.8999 13C15.8999 11.3431 14.5568 9.99998 12.8999 9.99998C11.243 9.99998 9.8999 11.3431 9.8999 13C9.8999 14.6568 11.243 16 12.8999 16Z" stroke="#9CA3AF" stroke-width="1.67" stroke-linecap="round" stroke-linejoin="round"/>
<path d="M3.8999 10.5651C3.8999 9.9907 3.8999 9.70352 3.97393 9.43905C4.0395 9.20478 4.14727 8.98444 4.29193 8.78886C4.45524 8.56806 4.68192 8.39175 5.13529 8.03912L11.9176 2.764C12.2689 2.49075 12.4446 2.35412 12.6386 2.3016C12.8097 2.25526 12.9901 2.25526 13.1612 2.3016C13.3552 2.35412 13.5309 2.49075 13.8822 2.764L20.6645 8.03913C21.1179 8.39175 21.3446 8.56806 21.5079 8.78886C21.6525 8.98444 21.7603 9.20478 21.8259 9.43905C21.8999 9.70352 21.8999 9.9907 21.8999 10.5651V17.8C21.8999 18.9201 21.8999 19.4801 21.6819 19.908C21.4902 20.2843 21.1842 20.5903 20.8079 20.782C20.3801 21 19.82 21 18.6999 21H7.0999C5.9798 21 5.41974 21 4.99192 20.782C4.6156 20.5903 4.30964 20.2843 4.11789 19.908C3.8999 19.4801 3.8999 18.9201 3.8999 17.8V10.5651Z" stroke="#9CA3AF" stroke-width="1.67" stroke-linecap="round" stroke-linejoin="round"/>
</svg>
