<svg width="25" height="25" viewBox="0 0 25 25" fill="none" xmlns="http://www.w3.org/2000/svg">
<path d="M12.3667 23.31C11.6767 23.31 11.0267 22.96 10.5667 22.35L9.0667 20.35C9.0367 20.31 8.9167 20.26 8.8667 20.25H8.3667C4.1967 20.25 1.6167 19.12 1.6167 13.5V8.5C1.6167 4.08 3.9467 1.75 8.3667 1.75H16.3667C20.7867 1.75 23.1167 4.08 23.1167 8.5V13.5C23.1167 17.92 20.7867 20.25 16.3667 20.25H15.8667C15.7867 20.25 15.7167 20.29 15.6667 20.35L14.1667 22.35C13.7067 22.96 13.0567 23.31 12.3667 23.31ZM8.3667 3.25C4.7867 3.25 3.1167 4.92 3.1167 8.5V13.5C3.1167 18.02 4.6667 18.75 8.3667 18.75H8.8667C9.3767 18.75 9.9567 19.04 10.2667 19.45L11.7667 21.45C12.1167 21.91 12.6167 21.91 12.9667 21.45L14.4667 19.45C14.7967 19.01 15.3167 18.75 15.8667 18.75H16.3667C19.9467 18.75 21.6167 17.08 21.6167 13.5V8.5C21.6167 4.92 19.9467 3.25 16.3667 3.25H8.3667Z" fill="#9CA3AF"/>
<path d="M12.3667 12.5C11.8067 12.5 11.3667 12.05 11.3667 11.5C11.3667 10.95 11.8167 10.5 12.3667 10.5C12.9167 10.5 13.3667 10.95 13.3667 11.5C13.3667 12.05 12.9267 12.5 12.3667 12.5Z" fill="#9CA3AF"/>
<path d="M16.3667 12.5C15.8067 12.5 15.3667 12.05 15.3667 11.5C15.3667 10.95 15.8167 10.5 16.3667 10.5C16.9167 10.5 17.3667 10.95 17.3667 11.5C17.3667 12.05 16.9267 12.5 16.3667 12.5Z" fill="#9CA3AF"/>
<path d="M8.3667 12.5C7.8067 12.5 7.3667 12.05 7.3667 11.5C7.3667 10.95 7.8167 10.5 8.3667 10.5C8.9167 10.5 9.3667 10.95 9.3667 11.5C9.3667 12.05 8.9267 12.5 8.3667 12.5Z" fill="#9CA3AF"/>
</svg>
