<svg width="20" height="20" viewBox="0 0 20 20" fill="none" xmlns="http://www.w3.org/2000/svg">
<path d="M16.1167 12.0724L15.2833 10.6891C15.1083 10.3807 14.95 9.7974 14.95 9.45573V7.3474C14.95 5.38906 13.8 3.6974 12.1417 2.90573C11.7083 2.13906 10.9083 1.66406 9.99166 1.66406C9.08333 1.66406 8.26666 2.15573 7.83333 2.93073C6.20833 3.73906 5.08333 5.41406 5.08333 7.3474V9.45573C5.08333 9.7974 4.92499 10.3807 4.74999 10.6807L3.90833 12.0724C3.57499 12.6307 3.49999 13.2474 3.70833 13.8141C3.90833 14.3724 4.38333 14.8057 4.99999 15.0141C6.61666 15.5641 8.31666 15.8307 10.0167 15.8307C11.7167 15.8307 13.4167 15.5641 15.0333 15.0224C15.6167 14.8307 16.0667 14.3891 16.2833 13.8141C16.5 13.2391 16.4417 12.6057 16.1167 12.0724Z" fill="white"/>
<path d="M12.3583 16.6724C12.0083 17.6391 11.0833 18.3307 9.99999 18.3307C9.34166 18.3307 8.69166 18.0641 8.23333 17.5891C7.96666 17.3391 7.76666 17.0057 7.64999 16.6641C7.75833 16.6807 7.86666 16.6891 7.98333 16.7057C8.17499 16.7307 8.37499 16.7557 8.57499 16.7724C9.04999 16.8141 9.53333 16.8391 10.0167 16.8391C10.4917 16.8391 10.9667 16.8141 11.4333 16.7724C11.6083 16.7557 11.7833 16.7474 11.95 16.7224C12.0833 16.7057 12.2167 16.6891 12.3583 16.6724Z" fill="white"/>
</svg>
