<svg width="25" height="24" viewBox="0 0 25 24" fill="none" xmlns="http://www.w3.org/2000/svg">
<path d="M12.0999 15C8.92987 15 6.11075 16.5306 4.31594 18.906C3.92965 19.4172 3.73651 19.6728 3.74283 20.0183C3.74771 20.2852 3.91531 20.6219 4.12531 20.7867C4.39714 21 4.77382 21 5.52718 21H18.6727C19.4261 21 19.8028 21 20.0746 20.7867C20.2846 20.6219 20.4522 20.2852 20.4571 20.0183C20.4634 19.6728 20.2702 19.4172 19.884 18.906C18.0892 16.5306 15.27 15 12.0999 15Z" stroke="#9CA3AF" stroke-width="1.67" stroke-linecap="round" stroke-linejoin="round"/>
<path d="M12.0999 12C14.5852 12 16.5999 9.98528 16.5999 7.5C16.5999 5.01472 14.5852 3 12.0999 3C9.61467 3 7.59995 5.01472 7.59995 7.5C7.59995 9.98528 9.61467 12 12.0999 12Z" stroke="#9CA3AF" stroke-width="1.67" stroke-linecap="round" stroke-linejoin="round"/>
</svg>
