<svg width="20" height="20" viewBox="0 0 20 20" fill="none" xmlns="http://www.w3.org/2000/svg">
<path d="M18.3334 7.71094H1.66669C1.32502 7.71094 1.04169 7.4276 1.04169 7.08594C1.04169 6.74427 1.32502 6.46094 1.66669 6.46094H18.3334C18.675 6.46094 18.9584 6.74427 18.9584 7.08594C18.9584 7.4276 18.675 7.71094 18.3334 7.71094Z" fill="#9CA3AF"/>
<path d="M6.66667 14.375H5C4.65833 14.375 4.375 14.0917 4.375 13.75C4.375 13.4083 4.65833 13.125 5 13.125H6.66667C7.00833 13.125 7.29167 13.4083 7.29167 13.75C7.29167 14.0917 7.00833 14.375 6.66667 14.375Z" fill="#9CA3AF"/>
<path d="M12.0833 14.375H8.75C8.40833 14.375 8.125 14.0917 8.125 13.75C8.125 13.4083 8.40833 13.125 8.75 13.125H12.0833C12.425 13.125 12.7083 13.4083 12.7083 13.75C12.7083 14.0917 12.425 14.375 12.0833 14.375Z" fill="#9CA3AF"/>
<path d="M14.6334 17.7057H5.36669C2.05002 17.7057 1.04169 16.7057 1.04169 13.4224V6.5724C1.04169 3.28906 2.05002 2.28906 5.36669 2.28906H14.625C17.9417 2.28906 18.95 3.28906 18.95 6.5724V13.4141C18.9584 16.7057 17.95 17.7057 14.6334 17.7057ZM5.36669 3.53906C2.75002 3.53906 2.29169 3.98906 2.29169 6.5724V13.4141C2.29169 15.9974 2.75002 16.4474 5.36669 16.4474H14.625C17.2417 16.4474 17.7 15.9974 17.7 13.4141V6.5724C17.7 3.98906 17.2417 3.53906 14.625 3.53906H5.36669Z" fill="#9CA3AF"/>
</svg>
