<svg width="25" height="25" viewBox="0 0 25 25" fill="none" xmlns="http://www.w3.org/2000/svg">
<path d="M12.6333 23.25C7.7533 23.25 3.78333 19.28 3.78333 14.4C3.75333 8.67 9.21329 3.9 11.5633 2.11C12.1933 1.63 13.0733 1.63 13.7033 2.11C16.0533 3.93 21.5133 8.76 21.4833 14.41C21.4833 19.28 17.5133 23.25 12.6333 23.25ZM12.6333 3.25C12.5833 3.25 12.5233 3.27 12.4733 3.31C10.7833 4.6 5.26327 9.21 5.29327 14.4C5.29327 18.46 8.59331 21.75 12.6433 21.75C16.6933 21.75 19.9933 18.46 19.9933 14.41C20.0233 9.29 14.4933 4.62 12.7933 3.31C12.7333 3.27 12.6833 3.25 12.6333 3.25Z" fill="#9CA3AF"/>
<path d="M12.6333 23.25C12.2233 23.25 11.8833 22.91 11.8833 22.5V2.5C11.8833 2.09 12.2233 1.75 12.6333 1.75C13.0433 1.75 13.3833 2.09 13.3833 2.5V22.5C13.3833 22.91 13.0433 23.25 12.6333 23.25Z" fill="#9CA3AF"/>
<path d="M12.6332 20.21C12.3532 20.21 12.0832 20.05 11.9532 19.79C11.7732 19.42 11.9232 18.97 12.3032 18.79L20.0032 15.05C20.3732 14.87 20.8232 15.03 21.0032 15.4C21.1832 15.77 21.0333 16.22 20.6533 16.4L12.9532 20.14C12.8532 20.18 12.7432 20.21 12.6332 20.21Z" fill="#9CA3AF"/>
<path d="M12.6332 15.21C12.3532 15.21 12.0832 15.05 11.9532 14.79C11.7732 14.42 11.9232 13.97 12.3032 13.79L19.6732 10.21C20.0432 10.03 20.4932 10.18 20.6732 10.56C20.8532 10.94 20.7032 11.38 20.3232 11.56L12.9532 15.14C12.8532 15.18 12.7432 15.21 12.6332 15.21Z" fill="#9CA3AF"/>
<path d="M12.6332 10.21C12.3532 10.21 12.0832 10.05 11.9532 9.78997C11.7732 9.41997 11.9232 8.96997 12.3032 8.78997L17.3333 6.34997C17.7033 6.16997 18.1533 6.32996 18.3333 6.69996C18.5133 7.06996 18.3632 7.51996 17.9832 7.69996L12.9532 10.14C12.8532 10.18 12.7432 10.21 12.6332 10.21Z" fill="#9CA3AF"/>
</svg>
