<svg width="20" height="20" viewBox="0 0 20 20" fill="none" xmlns="http://www.w3.org/2000/svg">
<path d="M9.99998 12.5C7.35825 12.5 5.00898 13.7755 3.51331 15.755C3.1914 16.181 3.03044 16.394 3.03571 16.6819C3.03978 16.9043 3.17944 17.1849 3.35445 17.3222C3.58097 17.5 3.89487 17.5 4.52267 17.5H15.4773C16.1051 17.5 16.419 17.5 16.6455 17.3222C16.8205 17.1849 16.9602 16.9043 16.9642 16.6819C16.9695 16.394 16.8086 16.181 16.4866 15.755C14.991 13.7755 12.6417 12.5 9.99998 12.5Z" stroke="#9CA3AF" stroke-width="1.67" stroke-linecap="round" stroke-linejoin="round"/>
<path d="M9.99998 10C12.071 10 13.75 8.32107 13.75 6.25C13.75 4.17893 12.071 2.5 9.99998 2.5C7.92891 2.5 6.24998 4.17893 6.24998 6.25C6.24998 8.32107 7.92891 10 9.99998 10Z" stroke="#9CA3AF" stroke-width="1.67" stroke-linecap="round" stroke-linejoin="round"/>
</svg>
