<svg width="24" height="24" viewBox="0 0 24 24" fill="none" xmlns="http://www.w3.org/2000/svg">
<path d="M18.47 2H14.47C12.9772 2 11.7432 3.28581 11.5097 4.75204C11.4663 5.02475 11.6939 5.25 11.97 5.25H16.47C16.88 5.25 17.22 5.59 17.22 6C17.22 6.41 16.88 6.75 16.47 6.75H11.97C11.6939 6.75 11.47 6.97386 11.47 7.25V8.75C11.47 9.02614 11.6939 9.25 11.97 9.25H14.28C14.69 9.25 15.03 9.59 15.03 10C15.03 10.41 14.69 10.75 14.28 10.75H11.97C11.6939 10.75 11.47 10.9739 11.47 11.25V12.705C11.47 12.9792 11.6908 13.2022 11.965 13.2049L16.47 13.25C16.89 13.25 17.22 13.59 17.22 14.01C17.21 14.42 16.88 14.75 16.47 14.75C16.46 14.75 16.46 14.75 16.46 14.75L11.975 14.7051C11.6969 14.7023 11.47 14.9269 11.47 15.205V16.75C11.47 17.0261 11.6939 17.25 11.97 17.25H15.37C15.79 17.25 16.12 17.59 16.12 18C16.12 18.41 15.79 18.75 15.37 18.75H11.97C11.6939 18.75 11.4663 18.9753 11.5097 19.248C11.7432 20.7142 12.9772 22 14.47 22H18.47C20.12 22 21.47 20.66 21.47 19V5C21.47 3.34 20.12 2 18.47 2Z" fill="#00CB97"/>
<path d="M8.44 4.95V5.75C8.44 6.02614 8.21614 6.25 7.94 6.25H3.03C2.75386 6.25 2.53 6.02614 2.53 5.75V4.95C2.53 3.33 3.86 2 5.49 2C7.11 2 8.44 3.33 8.44 4.95Z" fill="#00CB97"/>
<path d="M2.53 17.91C2.53 18.36 2.72 19.05 2.96 19.43L3.77 20.79C4.72 22.37 6.26 22.37 7.2 20.79L8.02 19.43C8.25 19.05 8.44 18.36 8.44 17.91V8.25C8.44 7.97386 8.21614 7.75 7.94 7.75H3.03C2.75386 7.75 2.53 7.97386 2.53 8.25V17.91Z" fill="#00CB97"/>
</svg>
