<svg width="24" height="24" viewBox="0 0 24 24" fill="none" xmlns="http://www.w3.org/2000/svg">
<path d="M13.47 7.40768L15.93 6.19768C16.23 6.04768 16.31 5.65768 16.08 5.41768C15.19 4.43768 14.29 3.61768 13.57 2.99768C13.24 2.71768 12.75 2.94768 12.75 3.37768V6.95768C12.75 7.32768 13.14 7.56768 13.47 7.40768Z" fill="#00CB97"/>
<path d="M12.75 19.7423V21.3923C12.75 21.6923 13.02 21.9423 13.32 21.8923C16.05 21.4423 18.33 19.6123 19.41 17.1523C19.6 16.7323 19.14 16.3123 18.72 16.5123L13.03 19.3023C12.86 19.3823 12.75 19.5523 12.75 19.7423Z" fill="#00CB97"/>
<path d="M11.25 3.35768C11.25 2.92768 10.76 2.69768 10.43 2.96768C8.07 4.94768 3.88 9.11768 3.9 13.8977C3.9 17.9177 6.84 21.2477 10.68 21.8877C10.98 21.9377 11.25 21.6877 11.25 21.3877V3.35768Z" fill="#00CB97"/>
<path d="M13.44 12.4675L18.73 10.2475C19 10.1275 19.13 9.8175 19 9.5575C18.63 8.8275 18.2 8.1175 17.73 7.4575C17.59 7.2575 17.33 7.1975 17.11 7.2975L13.02 9.2875C12.85 9.3675 12.74 9.5475 12.74 9.7375V12.0075C12.75 12.3575 13.11 12.6075 13.44 12.4675Z" fill="#00CB97"/>
<path d="M19.83 14.3107C19.99 14.2307 20.09 14.0807 20.09 13.9107C20.09 13.2707 20.01 12.6407 19.87 12.0207C19.8 11.7207 19.47 11.5607 19.19 11.6807L13.05 14.3007C12.87 14.3807 12.75 14.5607 12.75 14.7607V16.9607C12.75 17.3307 13.14 17.5707 13.47 17.4107L19.37 14.5407L19.83 14.3107Z" fill="#00CB97"/>
</svg>
